<?xml version="1.0" encoding="utf-8"?>
<!-- Generator: Adobe Illustrator 27.5.0, SVG Export Plug-In . SVG Version: 6.00 Build 0)  -->
<svg version="1.1" id="レイヤー_1" xmlns="http://www.w3.org/2000/svg" xmlns:xlink="http://www.w3.org/1999/xlink" x="0px"
	 y="0px" viewBox="0 0 600 400" enable-background="new 0 0 600 400" xml:space="preserve">
<rect fill="#FFFFFF" width="600" height="400"/>
<rect fill="#F3981C" width="600" height="132.835007"/>
<rect y="267.165985" fill="#007E5C" width="600" height="132.834"/>
<path fill="#2C2C6F" d="M300,138.333313c-34.057556,0-61.666626,27.609131-61.666626,61.666687
	S265.942444,261.666626,300,261.666626S361.666687,234.057556,361.666687,200S334.057556,138.333313,300,138.333313z
	 M350.56366,206.656799c-0.165527,1.257812,0.705627,2.408508,1.951721,2.604492
	c-0.541748,3.092224-1.336304,6.097107-2.38623,8.981506c-1.181763-0.466553-2.523193,0.095703-3.011292,1.274048
	c-0.486633,1.174744,0.060242,2.515625,1.218628,3.024902c-0.658325,1.409241-1.37915,2.782349-2.15387,4.121277
	l-26.788757-17.775391l-9.849609-4.145752c0.215637-0.433105,0.404541-0.88092,0.560547-1.344971l9.89325,4.032104
	l31.518005,6.374634l-30.482727-10.238342l-10.577515-1.453918c0.094543-0.470703,0.146973-0.955383,0.177307-1.446289
	L321.23938,202l32.093933-2l-32.093933-2l-10.606262,1.3349c-0.030334-0.490906-0.082764-0.975586-0.177307-1.446289
	l10.577515-1.453918l30.482727-10.238403l-31.518005,6.374695l-9.89325,4.032104
	c-0.156006-0.46405-0.344971-0.911865-0.560547-1.344971l9.849609-4.145752l26.788696-17.775452
	c0.774719,1.338928,1.495544,2.712036,2.153931,4.121338c-1.158386,0.509216-1.705261,1.850098-1.218628,3.024902
	c0.488098,1.178284,1.829529,1.740479,3.011292,1.273987c1.049927,2.884338,1.844482,5.889343,2.38623,8.981567
	c-1.246094,0.196045-2.117249,1.346619-1.951721,2.604431c0.165466,1.256592,1.302734,2.141663,2.555664,2.010742
	c0.132385,1.53241,0.213989,3.079407,0.213989,4.646118s-0.081604,3.113708-0.213989,4.646118
	C351.866394,204.515137,350.729126,205.400208,350.56366,206.656799z M340.848755,165.721985
	c-0.980835,0.792847-1.159973,2.224731-0.387756,3.231201c0.771851,1.005859,2.200256,1.203674,3.219849,0.462708
	c0.88916,1.267517,1.723022,2.575256,2.501343,3.920349l-28.78833,14.312012l-8.509399,6.45282
	c-0.27002-0.405823-0.572449-0.78656-0.893982-1.150696l8.442261-6.554688l21.279602-24.108032l-24.108032,21.279602
	l-6.554749,8.442261c-0.364136-0.321533-0.744812-0.623962-1.150635-0.893982l6.45282-8.509399l14.312012-28.78833
	c1.345093,0.77832,2.652832,1.612244,3.920349,2.501343c-0.740967,1.019653-0.543213,2.447937,0.462708,3.219849
	c1.00647,0.772217,2.438354,0.593079,3.231201-0.387756c1.188049,0.997986,2.337952,2.040039,3.434326,3.136414
	S339.850769,164.533936,340.848755,165.721985z M304.646118,146.880676c-0.130981,1.25293,0.75415,2.390198,2.010742,2.555603
	c1.257751,0.165588,2.408386-0.705566,2.604431-1.95166c3.092224,0.541748,6.097229,1.336304,8.981567,2.38623
	c-0.466492,1.181763,0.095703,2.523193,1.273987,3.011292c1.174744,0.486633,2.515625-0.060242,3.024902-1.218628
	c1.409302,0.658386,2.78241,1.379211,4.121338,2.153931l-17.775452,26.788696l-4.145752,9.849609
	c-0.433105-0.215576-0.88092-0.404541-1.344971-0.560547l4.032104-9.89325l6.374695-31.518005l-10.238403,30.482727
	l-1.453918,10.577515c-0.470703-0.094543-0.955383-0.146973-1.446289-0.177307L302,178.76062l-2-32.093933l-2,32.093933
	l1.3349,10.606262c-0.490906,0.030334-0.975586,0.082764-1.446289,0.177307l-1.453918-10.577515l-10.238342-30.482727
	l6.374634,31.518005l4.032104,9.89325c-0.46405,0.156006-0.911865,0.344971-1.344971,0.560547l-4.145752-9.849609
	l-17.775391-26.788757c1.338928-0.774719,2.712036-1.495544,4.121277-2.15387
	c0.509277,1.158386,1.850159,1.705261,3.024902,1.218628c1.178284-0.488098,1.74054-1.829529,1.274048-3.011292
	c2.884338-1.049927,5.889343-1.844543,8.981506-2.38623c0.196045,1.246094,1.34668,2.117249,2.604492,1.95166
	c1.256592-0.165405,2.141663-1.302673,2.010681-2.555603c1.53241-0.132385,3.079407-0.213989,4.646118-0.213989
	S303.113708,146.748291,304.646118,146.880676z M252.882141,219.516846c-0.488037-1.178345-1.829468-1.740601-3.011292-1.274048
	c-1.049927-2.884399-1.844482-5.889282-2.38623-8.981506c1.246094-0.195984,2.11731-1.34668,1.951721-2.604492
	c-0.165466-1.256592-1.302795-2.141724-2.555664-2.010681c-0.132385-1.53241-0.213989-3.079407-0.213989-4.646118
	s0.081604-3.113708,0.213989-4.646118c1.252869,0.131042,2.390198-0.75415,2.555664-2.010742
	c0.165588-1.257812-0.705627-2.408386-1.951721-2.604431c0.541748-3.092224,1.336304-6.097229,2.38623-8.981567
	c1.181824,0.466492,2.523254-0.095703,3.011292-1.273987c0.486633-1.174866-0.060242-2.515686-1.218628-3.024902
	c0.658386-1.409302,1.37915-2.78241,2.153931-4.121338l26.788696,17.775452l9.84967,4.145752
	c-0.215576,0.433044-0.404541,0.88092-0.560547,1.344971l-9.893311-4.032104l-31.518005-6.374695l30.482727,10.238403
	l10.577576,1.453918c-0.094482,0.470703-0.146973,0.955444-0.177307,1.44635L278.76062,198l-32.093933,2l32.093933,2
	l10.606323-1.334961c0.030334,0.490906,0.082825,0.975647,0.177307,1.44635l-10.577576,1.453918l-30.482727,10.238342
	l31.518005-6.374634l9.893311-4.032104c0.156006,0.46405,0.344971,0.911865,0.560547,1.344971l-9.84967,4.145752
	l-26.788757,17.775391c-0.774719-1.338928-1.495544-2.712036-2.15387-4.121277
	C252.821899,222.032532,253.368774,220.69165,252.882141,219.516846z M265.721985,159.151245
	c0.792847,0.980835,2.224731,1.159973,3.231201,0.387756c1.00592-0.771912,1.203674-2.200195,0.462708-3.219849
	c1.267517-0.889099,2.575317-1.723022,3.92041-2.501343l14.311951,28.78833l6.452881,8.50946
	c-0.405823,0.269958-0.78656,0.572388-1.150696,0.893921l-6.554749-8.442261l-24.108032-21.279602l21.279602,24.108032
	l8.442322,6.554688c-0.321533,0.364136-0.623962,0.744873-0.893982,1.150696l-8.50946-6.45282l-28.78833-14.312073
	c0.77832-1.345093,1.612183-2.652771,2.501343-3.920288c1.019592,0.740906,2.447998,0.543152,3.219849-0.462708
	c0.772217-1.00647,0.59314-2.438354-0.387756-3.231201c0.997986-1.188049,2.040039-2.337952,3.136414-3.434326
	S264.533936,160.149231,265.721985,159.151245z M259.151245,234.278015c0.980896-0.792847,1.159973-2.224792,0.387756-3.231201
	c-0.771851-1.005981-2.200195-1.203674-3.219849-0.462708c-0.889099-1.267517-1.723022-2.575195-2.501343-3.920349
	l28.78833-14.312012l8.50946-6.45282c0.27002,0.405823,0.572449,0.786499,0.893982,1.150635l-8.442322,6.554749
	l-21.279602,24.108032l24.108032-21.279602l6.554749-8.442322c0.364136,0.321533,0.744873,0.623962,1.150696,0.893921
	l-6.452881,8.509521l-14.312012,28.78833c-1.345093-0.77832-2.652771-1.612244-3.920288-2.501343
	c0.740906-1.019653,0.543091-2.447998-0.462769-3.219849c-1.006409-0.772217-2.438232-0.593079-3.23114,0.387756
	c-1.188049-0.997986-2.338013-2.039978-3.434387-3.136414C261.191284,236.615967,260.149231,235.466003,259.151245,234.278015z
	 M295.353882,253.119324c0.131042-1.25293-0.754089-2.390198-2.010681-2.555664
	c-1.257812-0.165588-2.408569,0.705688-2.604553,1.951721c-3.092163-0.541687-6.097107-1.336304-8.981445-2.38623
	c0.466492-1.181824-0.095764-2.523254-1.274048-3.011292c-1.174744-0.486633-2.515625,0.060242-3.024902,1.218567
	c-1.409302-0.658325-2.782349-1.37915-4.121277-2.15387l17.775391-26.788696l4.145752-9.84967
	c0.433044,0.215576,0.88092,0.404541,1.344971,0.560547l-4.032104,9.893311l-6.374634,31.517944l10.238342-30.482666
	l1.453918-10.577576c0.470703,0.094543,0.955444,0.146973,1.44635,0.177307L298,221.23938l2,32.093933l2-32.093933
	l-1.334961-10.606323c0.490906-0.030334,0.975647-0.082764,1.44635-0.177307l1.453918,10.577576l10.238403,30.482666
	l-6.374695-31.517944l-4.032104-9.893311c0.46405-0.156006,0.911926-0.344971,1.344971-0.560547l4.145752,9.84967
	l17.775452,26.788696c-1.338928,0.77478-2.712036,1.495483-4.121338,2.15387c-0.509277-1.158325-1.850159-1.7052-3.024902-1.218567
	c-1.178284,0.488037-1.740479,1.829468-1.273987,3.011292c-2.884338,1.049927-5.889282,1.844482-8.981506,2.38623
	c-0.195984-1.246033-1.346741-2.11731-2.604492-1.951721c-1.256592,0.165466-2.141785,1.302734-2.010742,2.555664
	c-1.53241,0.132385-3.079407,0.213989-4.646118,0.213989S296.886292,253.251709,295.353882,253.119324z M334.277954,240.848755
	c-0.792908-0.980835-2.224731-1.159973-3.23114-0.387756c-1.005859,0.771851-1.203674,2.200195-0.462769,3.219849
	c-1.267517,0.889099-2.575195,1.722961-3.920288,2.501282l-14.312012-28.788269l-6.452881-8.50946
	c0.405823-0.27002,0.78656-0.572449,1.150696-0.893982l6.554749,8.442322l24.108032,21.279602l-21.279602-24.108032
	l-8.442261-6.554749c0.321533-0.364136,0.623962-0.744873,0.893921-1.150696l8.50946,6.452881l28.78833,14.311951
	c-0.77832,1.345154-1.612244,2.652893-2.501343,3.92041c-1.019653-0.740967-2.447998-0.543274-3.219849,0.462708
	c-0.772217,1.006409-0.593079,2.438354,0.387756,3.231201c-0.997986,1.187988-2.040039,2.337952-3.136414,3.434326
	C336.615967,238.808777,335.466064,239.850769,334.277954,240.848755z"/>
</svg>
